<mxfile host="app.diagrams.net" modified="2024-10-21T06:26:02.310Z" agent="Mozilla/5.0 (Windows NT 10.0; Win64; x64) AppleWebKit/537.36 (KHTML, like Gecko) Chrome/129.0.0.0 Safari/537.36" etag="BItleLhGUAA6fbE9E5ix" version="24.7.1" type="github">
  <diagram name="第 1 页" id="tN9jCnUPORuDZxZZFhFp">
    <mxGraphModel dx="1891" dy="564" grid="1" gridSize="10" guides="1" tooltips="1" connect="1" arrows="1" fold="1" page="1" pageScale="1" pageWidth="827" pageHeight="1169" math="0" shadow="0">
      <root>
        <mxCell id="0" />
        <mxCell id="1" parent="0" />
        <mxCell id="d-A-i4SPgL7deVdhDLGZ-4" style="edgeStyle=orthogonalEdgeStyle;rounded=0;orthogonalLoop=1;jettySize=auto;html=1;entryX=0.5;entryY=0;entryDx=0;entryDy=0;" edge="1" parent="1" source="d-A-i4SPgL7deVdhDLGZ-2" target="d-A-i4SPgL7deVdhDLGZ-3">
          <mxGeometry relative="1" as="geometry" />
        </mxCell>
        <mxCell id="d-A-i4SPgL7deVdhDLGZ-2" value="用户申请查看" style="rounded=1;whiteSpace=wrap;html=1;" vertex="1" parent="1">
          <mxGeometry x="80" y="40" width="100" height="30" as="geometry" />
        </mxCell>
        <mxCell id="d-A-i4SPgL7deVdhDLGZ-5" style="edgeStyle=orthogonalEdgeStyle;rounded=0;orthogonalLoop=1;jettySize=auto;html=1;" edge="1" parent="1" source="d-A-i4SPgL7deVdhDLGZ-3" target="d-A-i4SPgL7deVdhDLGZ-6">
          <mxGeometry relative="1" as="geometry">
            <mxPoint x="130" y="220" as="targetPoint" />
          </mxGeometry>
        </mxCell>
        <mxCell id="d-A-i4SPgL7deVdhDLGZ-3" value="发起审批流程" style="rounded=0;whiteSpace=wrap;html=1;" vertex="1" parent="1">
          <mxGeometry x="70" y="120" width="120" height="40" as="geometry" />
        </mxCell>
        <mxCell id="d-A-i4SPgL7deVdhDLGZ-7" style="edgeStyle=orthogonalEdgeStyle;rounded=0;orthogonalLoop=1;jettySize=auto;html=1;" edge="1" parent="1" source="d-A-i4SPgL7deVdhDLGZ-6" target="d-A-i4SPgL7deVdhDLGZ-8">
          <mxGeometry relative="1" as="geometry">
            <mxPoint x="130" y="290" as="targetPoint" />
          </mxGeometry>
        </mxCell>
        <mxCell id="d-A-i4SPgL7deVdhDLGZ-6" value="参考&amp;nbsp;&lt;span style=&quot;color: rgb(0, 98, 122); font-family: &amp;quot;JetBrains Mono&amp;quot;, monospace; font-size: 9.8pt; background-color: rgb(255, 255, 255);&quot;&gt;sampleCancelApprovalCreate 方法&lt;/span&gt;" style="rounded=0;whiteSpace=wrap;html=1;" vertex="1" parent="1">
          <mxGeometry x="-5" y="190" width="270" height="60" as="geometry" />
        </mxCell>
        <mxCell id="d-A-i4SPgL7deVdhDLGZ-10" value="" style="edgeStyle=orthogonalEdgeStyle;rounded=0;orthogonalLoop=1;jettySize=auto;html=1;" edge="1" parent="1" source="d-A-i4SPgL7deVdhDLGZ-8" target="d-A-i4SPgL7deVdhDLGZ-9">
          <mxGeometry relative="1" as="geometry" />
        </mxCell>
        <mxCell id="d-A-i4SPgL7deVdhDLGZ-8" value="流程定义 code：&lt;span style=&quot;font-family: &amp;quot;JetBrains Mono&amp;quot;, monospace; font-size: 9.8pt; background-color: rgb(255, 255, 255);&quot;&gt;ApprovalDefinitionTypeEnum.&lt;/span&gt;&lt;font face=&quot;JetBrains Mono, monospace&quot;&gt;&lt;span style=&quot;font-size: 13.0667px;&quot;&gt;BGSQCK&lt;/span&gt;&lt;/font&gt;" style="rounded=0;whiteSpace=wrap;html=1;" vertex="1" parent="1">
          <mxGeometry x="-5" y="300" width="270" height="60" as="geometry" />
        </mxCell>
        <mxCell id="d-A-i4SPgL7deVdhDLGZ-13" style="edgeStyle=orthogonalEdgeStyle;rounded=0;orthogonalLoop=1;jettySize=auto;html=1;entryX=0;entryY=0.5;entryDx=0;entryDy=0;" edge="1" parent="1" source="d-A-i4SPgL7deVdhDLGZ-9" target="d-A-i4SPgL7deVdhDLGZ-11">
          <mxGeometry relative="1" as="geometry" />
        </mxCell>
        <mxCell id="d-A-i4SPgL7deVdhDLGZ-9" value="通过 code 查询流程定义 id" style="whiteSpace=wrap;html=1;rounded=0;" vertex="1" parent="1">
          <mxGeometry x="-5" y="400" width="270" height="50" as="geometry" />
        </mxCell>
        <mxCell id="d-A-i4SPgL7deVdhDLGZ-15" value="" style="edgeStyle=orthogonalEdgeStyle;rounded=0;orthogonalLoop=1;jettySize=auto;html=1;" edge="1" parent="1" source="d-A-i4SPgL7deVdhDLGZ-11" target="d-A-i4SPgL7deVdhDLGZ-14">
          <mxGeometry relative="1" as="geometry" />
        </mxCell>
        <mxCell id="d-A-i4SPgL7deVdhDLGZ-11" value="创建流程：&lt;span style=&quot;font-family: &amp;quot;JetBrains Mono&amp;quot;, monospace; font-size: 9.8pt; background-color: rgb(255, 255, 255); color: rgb(135, 16, 148);&quot;&gt;processEngineService&lt;/span&gt;&lt;span style=&quot;font-family: &amp;quot;JetBrains Mono&amp;quot;, monospace; font-size: 9.8pt; background-color: rgb(255, 255, 255); color: rgb(8, 8, 8);&quot;&gt;.createInstance(&lt;/span&gt;&lt;span style=&quot;font-family: &amp;quot;JetBrains Mono&amp;quot;, monospace; font-size: 9.8pt; background-color: rgb(255, 255, 255);&quot;&gt;processInstance&lt;/span&gt;&lt;span style=&quot;font-family: &amp;quot;JetBrains Mono&amp;quot;, monospace; font-size: 9.8pt; background-color: rgb(255, 255, 255); color: rgb(8, 8, 8);&quot;&gt;);&lt;/span&gt;" style="whiteSpace=wrap;html=1;rounded=0;" vertex="1" parent="1">
          <mxGeometry x="377" y="392.5" width="450" height="65" as="geometry" />
        </mxCell>
        <mxCell id="d-A-i4SPgL7deVdhDLGZ-14" value="根据流程定义配置的节点进行审批" style="whiteSpace=wrap;html=1;rounded=0;" vertex="1" parent="1">
          <mxGeometry x="480.5" y="510" width="243" height="45" as="geometry" />
        </mxCell>
      </root>
    </mxGraphModel>
  </diagram>
</mxfile>
